<svg id="visual" viewBox="0 0 960 540" width="960" height="540" xmlns="http://www.w3.org/2000/svg" xmlns:xlink="http://www.w3.org/1999/xlink" version="1.1"><path d="M0 55L20 57.7C40 60.3 80 65.7 120 63C160 60.3 200 49.7 240 43.3C280 37 320 35 360 34C400 33 440 33 480 34.8C520 36.7 560 40.3 600 45.8C640 51.3 680 58.7 720 60.5C760 62.3 800 58.7 840 55C880 51.3 920 47.7 940 45.8L960 44L960 0L940 0C920 0 880 0 840 0C800 0 760 0 720 0C680 0 640 0 600 0C560 0 520 0 480 0C440 0 400 0 360 0C320 0 280 0 240 0C200 0 160 0 120 0C80 0 40 0 20 0L0 0Z" fill="#f6f6f6"></path><path d="M0 125L20 126.8C40 128.7 80 132.3 120 136.8C160 141.3 200 146.7 240 151.2C280 155.7 320 159.3 360 152.2C400 145 440 127 480 118C520 109 560 109 600 118.8C640 128.7 680 148.3 720 149.2C760 150 800 132 840 131.2C880 130.3 920 146.7 940 154.8L960 163L960 42L940 43.8C920 45.7 880 49.3 840 53C800 56.7 760 60.3 720 58.5C680 56.7 640 49.3 600 43.8C560 38.3 520 34.7 480 32.8C440 31 400 31 360 32C320 33 280 35 240 41.3C200 47.7 160 58.3 120 61C80 63.7 40 58.3 20 55.7L0 53Z" fill="#d6eef0"></path><path d="M0 158L20 166C40 174 80 190 120 199.8C160 209.7 200 213.3 240 216C280 218.7 320 220.3 360 214C400 207.7 440 193.3 480 179.8C520 166.3 560 153.7 600 161.8C640 170 680 199 720 200.8C760 202.7 800 177.3 840 174.7C880 172 920 192 940 202L960 212L960 161L940 152.8C920 144.7 880 128.3 840 129.2C800 130 760 148 720 147.2C680 146.3 640 126.7 600 116.8C560 107 520 107 480 116C440 125 400 143 360 150.2C320 157.3 280 153.7 240 149.2C200 144.7 160 139.3 120 134.8C80 130.3 40 126.7 20 124.8L0 123Z" fill="#b5e5e9"></path><path d="M0 357L20 363.3C40 369.7 80 382.3 120 386C160 389.7 200 384.3 240 368.2C280 352 320 325 360 323.2C400 321.3 440 344.7 480 333.8C520 323 560 278 600 279C640 280 680 327 720 343.2C760 359.3 800 344.7 840 329.3C880 314 920 298 940 290L960 282L960 210L940 200C920 190 880 170 840 172.7C800 175.3 760 200.7 720 198.8C680 197 640 168 600 159.8C560 151.7 520 164.3 480 177.8C440 191.3 400 205.7 360 212C320 218.3 280 216.7 240 214C200 211.3 160 207.7 120 197.8C80 188 40 172 20 164L0 156Z" fill="#90dde3"></path><path d="M0 487L20 489.7C40 492.3 80 497.7 120 494C160 490.3 200 477.7 240 475C280 472.3 320 479.7 360 479.7C400 479.7 440 472.3 480 464.2C520 456 560 447 600 445.3C640 443.7 680 449.3 720 453C760 456.7 800 458.3 840 458.3C880 458.3 920 456.7 940 455.8L960 455L960 280L940 288C920 296 880 312 840 327.3C800 342.7 760 357.3 720 341.2C680 325 640 278 600 277C560 276 520 321 480 331.8C440 342.7 400 319.3 360 321.2C320 323 280 350 240 366.2C200 382.3 160 387.7 120 384C80 380.3 40 367.7 20 361.3L0 355Z" fill="#65d4dc"></path><path d="M0 541L20 541C40 541 80 541 120 541C160 541 200 541 240 541C280 541 320 541 360 541C400 541 440 541 480 541C520 541 560 541 600 541C640 541 680 541 720 541C760 541 800 541 840 541C880 541 920 541 940 541L960 541L960 453L940 453.8C920 454.7 880 456.3 840 456.3C800 456.3 760 454.7 720 451C680 447.3 640 441.7 600 443.3C560 445 520 454 480 462.2C440 470.3 400 477.7 360 477.7C320 477.7 280 470.3 240 473C200 475.7 160 488.3 120 492C80 495.7 40 490.3 20 487.7L0 485Z" fill="#11cbd6"></path></svg>